<svg width="32" height="24" viewBox="0 0 32 24" fill="none" xmlns="http://www.w3.org/2000/svg">
<path d="M21.7172 7.52199C21.9213 7.52199 22.1253 7.52863 22.3258 7.53859C21.4821 3.26639 16.8521 0 11.2643 0C5.0817 0 0.0678711 4.00332 0.0678711 8.94274C0.0678711 11.6349 1.57548 14.0614 3.93716 15.7012C4.03457 15.7673 4.11401 15.8548 4.16878 15.9565C4.22354 16.0582 4.25203 16.171 4.25183 16.2855C4.25183 16.3651 4.23454 16.4382 4.21379 16.5145C4.02361 17.1884 3.72278 18.2672 3.70895 18.317C3.68474 18.4033 3.65017 18.4896 3.65017 18.5792C3.65017 18.7751 3.81614 18.9378 4.02361 18.9378C4.10314 18.9378 4.16884 18.9079 4.23799 18.8714L6.68958 17.5137C6.87285 17.4108 7.06994 17.3477 7.28433 17.3477C7.39498 17.3477 7.50563 17.3643 7.61282 17.3942C8.75736 17.7095 9.9918 17.8855 11.2677 17.8855C11.4752 17.8855 11.6792 17.8822 11.8832 17.8722C11.6377 17.1751 11.5063 16.4415 11.5063 15.6813C11.5063 11.1734 16.0775 7.52199 21.7172 7.52199ZM14.9987 4.65062C15.8217 4.65062 16.4925 5.29128 16.4925 6.08133C16.4925 6.87137 15.8251 7.51203 14.9987 7.51203C14.1757 7.51203 13.5049 6.87137 13.5049 6.08133C13.5049 5.29128 14.1757 4.65062 14.9987 4.65062ZM7.53329 7.51203C6.71033 7.51203 6.03951 6.87137 6.03951 6.08133C6.03951 5.29128 6.70687 4.65062 7.53329 4.65062C8.35971 4.65062 9.02707 5.29128 9.02707 6.08133C9.02707 6.87137 8.35625 7.51203 7.53329 7.51203ZM27.8237 21.3079C29.7912 19.9402 31.0464 17.922 31.0464 15.6747C31.0464 11.5585 26.8694 8.2224 21.7138 8.2224C16.5616 8.2224 12.3811 11.5585 12.3811 15.6747C12.3811 19.7909 16.5582 23.127 21.7138 23.127C22.7788 23.127 23.8092 22.9809 24.7601 22.7187C24.85 22.6921 24.9399 22.6788 25.0333 22.6788C25.2131 22.6788 25.3756 22.7319 25.5278 22.8149L27.5713 23.9436C27.6301 23.9768 27.6854 24 27.7511 24C27.7921 24.0003 27.8328 23.9928 27.8707 23.978C27.9087 23.9632 27.9433 23.9414 27.9724 23.9137C28.0012 23.8857 28.024 23.8525 28.0395 23.8161C28.0549 23.7796 28.0627 23.7406 28.0623 23.7012C28.0623 23.6282 28.0312 23.5552 28.0139 23.4822C28.0035 23.4423 27.7511 22.5427 27.5921 21.9784C27.5748 21.9153 27.5609 21.8523 27.5609 21.7892C27.5644 21.5934 27.6681 21.4174 27.8237 21.3079ZM18.6087 14.4863C17.9206 14.4863 17.3639 13.9519 17.3639 13.2946C17.3639 12.6373 17.9206 12.1029 18.6087 12.1029C19.2968 12.1029 19.8535 12.6373 19.8535 13.2946C19.8535 13.9519 19.2933 14.4863 18.6087 14.4863ZM24.8293 14.4863C24.1412 14.4863 23.5845 13.9519 23.5845 13.2946C23.5845 12.6373 24.1412 12.1029 24.8293 12.1029C25.5174 12.1029 26.0741 12.6373 26.0741 13.2946C26.0724 13.6107 25.9407 13.9135 25.7075 14.1367C25.4743 14.3599 25.1586 14.4856 24.8293 14.4863Z" fill="#5B5B5B"/>
</svg>
