<svg width="25" height="24" viewBox="0 0 25 24" fill="none" xmlns="http://www.w3.org/2000/svg">
<g clip-path="url(#clip0_208_1008)">
<path fill-rule="evenodd" clip-rule="evenodd" d="M8.51904 9C8.25383 9 7.99947 9.10536 7.81194 9.29289C7.6244 9.48043 7.51904 9.73478 7.51904 10V15C7.51904 16.5913 8.15118 18.1174 9.2764 19.2426C10.4016 20.3679 11.9277 21 13.519 21C15.1103 21 16.6365 20.3679 17.7617 19.2426C18.8869 18.1174 19.519 16.5913 19.519 15V10C19.519 9.73478 19.4137 9.48043 19.2262 9.29289C19.0386 9.10536 18.7843 9 18.519 9H8.51904ZM6.39772 7.87868C6.96033 7.31607 7.72339 7 8.51904 7H18.519C19.3147 7 20.0778 7.31607 20.6404 7.87868C21.203 8.44129 21.519 9.20435 21.519 10V15C21.519 17.1217 20.6762 19.1566 19.1759 20.6569C17.6756 22.1571 15.6408 23 13.519 23C11.3973 23 9.36248 22.1571 7.86219 20.6569C6.3619 19.1566 5.51904 17.1217 5.51904 15V10C5.51904 9.20435 5.83511 8.44129 6.39772 7.87868Z" fill="#464646"/>
<path fill-rule="evenodd" clip-rule="evenodd" d="M15.91 5.29613C14.5698 4.90064 12.4683 4.90064 11.1281 5.29613C10.955 5.34719 10.8207 5.45694 10.7118 5.66175C10.5936 5.88418 10.519 6.20308 10.519 6.57501V7.00001C10.519 7.5523 10.0713 8.00001 9.51904 8.00001C8.96676 8.00001 8.51904 7.5523 8.51904 7.00001V6.57501C8.51904 5.43114 8.97604 3.84595 10.562 3.37791L10.562 3.3779C12.2718 2.87338 14.7663 2.87338 16.4761 3.3779L16.4761 3.37791C18.062 3.84595 18.519 5.43114 18.519 6.57501V7.00001C18.519 7.5523 18.0713 8.00001 17.519 8.00001C16.9668 8.00001 16.519 7.5523 16.519 7.00001V6.57501C16.519 6.20308 16.4445 5.88418 16.3263 5.66175C16.2174 5.45694 16.0831 5.34719 15.91 5.29613ZM15.91 5.29613L16.193 4.33701L15.91 5.29613Z" fill="#464646"/>
<path fill-rule="evenodd" clip-rule="evenodd" d="M24.2262 4.29289C24.6167 4.68342 24.6167 5.31658 24.2262 5.70711L20.7262 9.20711C20.3356 9.59763 19.7025 9.59763 19.3119 9.20711C18.9214 8.81658 18.9214 8.18342 19.3119 7.79289L22.8119 4.29289C23.2025 3.90237 23.8356 3.90237 24.2262 4.29289Z" fill="#464646"/>
<path fill-rule="evenodd" clip-rule="evenodd" d="M2.81194 4.29289C3.20246 3.90237 3.83563 3.90237 4.22615 4.29289L7.72615 7.79289C8.11667 8.18342 8.11667 8.81658 7.72615 9.20711C7.33563 9.59763 6.70246 9.59763 6.31194 9.20711L2.81194 5.70711C2.42141 5.31658 2.42141 4.68342 2.81194 4.29289Z" fill="#464646"/>
<path fill-rule="evenodd" clip-rule="evenodd" d="M8.3191 18.4001C8.65047 18.8419 8.56093 19.4687 8.1191 19.8001L4.1191 22.8001C3.67727 23.1314 3.05047 23.0419 2.7191 22.6001C2.38773 22.1582 2.47727 21.5314 2.9191 21.2001L6.9191 18.2001C7.36093 17.8687 7.98773 17.9582 8.3191 18.4001Z" fill="#464646"/>
<path fill-rule="evenodd" clip-rule="evenodd" d="M2.01904 13C2.01904 12.4477 2.46676 12 3.01904 12H6.51904C7.07133 12 7.51904 12.4477 7.51904 13C7.51904 13.5523 7.07133 14 6.51904 14H3.01904C2.46676 14 2.01904 13.5523 2.01904 13Z" fill="#464646"/>
<path fill-rule="evenodd" clip-rule="evenodd" d="M19.519 13C19.519 12.4477 19.9668 12 20.519 12H24.019C24.5713 12 25.019 12.4477 25.019 13C25.019 13.5523 24.5713 14 24.019 14H20.519C19.9668 14 19.519 13.5523 19.519 13Z" fill="#464646"/>
<path fill-rule="evenodd" clip-rule="evenodd" d="M18.7191 18.4001C19.0505 17.9582 19.6773 17.8687 20.1191 18.2001L24.1191 21.2001C24.5609 21.5314 24.6505 22.1582 24.3191 22.6001C23.9877 23.0419 23.3609 23.1314 22.9191 22.8001L18.9191 19.8001C18.4773 19.4687 18.3877 18.8419 18.7191 18.4001Z" fill="#464646"/>
<path fill-rule="evenodd" clip-rule="evenodd" d="M13.519 13C14.0713 13 14.519 13.4477 14.519 14V22C14.519 22.5523 14.0713 23 13.519 23C12.9668 23 12.519 22.5523 12.519 22V14C12.519 13.4477 12.9668 13 13.519 13Z" fill="#464646"/>
</g>
<defs>
<clipPath id="clip0_208_1008">
<rect width="24" height="24" fill="white" transform="translate(0.519043)"/>
</clipPath>
</defs>
</svg>
