<svg width="25" height="23" viewBox="0 0 25 23" fill="none" xmlns="http://www.w3.org/2000/svg">
<path fill-rule="evenodd" clip-rule="evenodd" d="M11.5923 10.3099C12.5976 10.3096 13.5684 10.6766 14.3222 11.3418C15.0761 12.0071 15.561 12.9248 15.6856 13.9225L16.3455 19.2054C16.3455 19.2053 16.3455 19.2054 16.3455 19.2054C16.3998 19.6406 16.3611 20.0824 16.2316 20.5015C16.1022 20.9206 15.8852 21.3074 15.5948 21.6361C15.3045 21.9649 14.9476 22.2282 14.5478 22.4085C14.148 22.5888 13.7144 22.682 13.2759 22.6819C13.2758 22.6819 13.276 22.6819 13.2759 22.6819H7.63916M12.9578 12.8879C12.5809 12.5552 12.0954 12.3717 11.5927 12.3719L9.32027 12.3719C9.32017 12.3719 9.32036 12.3719 9.32027 12.3719C8.81788 12.3721 8.33255 12.5558 7.95597 12.8883C7.57932 13.2209 7.33708 13.6796 7.27477 14.1782L6.6139 19.4611C6.6139 19.4611 6.61391 19.461 6.6139 19.4611C6.59579 19.6061 6.60873 19.7535 6.65188 19.8932C6.69505 20.033 6.76745 20.1619 6.86428 20.2715C6.96111 20.3811 7.08015 20.4689 7.21349 20.5289C7.34683 20.589 7.49143 20.62 7.63768 20.6199H13.2759C13.4221 20.6199 13.5669 20.5889 13.7002 20.5288C13.8334 20.4687 13.9524 20.3809 14.0492 20.2713C14.146 20.1617 14.2183 20.0328 14.2614 19.8931C14.3046 19.7534 14.3175 19.6061 14.2994 19.4611L13.6396 14.1782C13.6396 14.1782 13.6396 14.1783 13.6396 14.1782C13.5772 13.6794 13.3348 13.2205 12.9578 12.8879Z" fill="#D83036"/>
<path fill-rule="evenodd" clip-rule="evenodd" d="M12.519 2.06199C11.3802 2.06199 10.457 2.98518 10.457 4.12398C10.457 5.26279 11.3802 6.18598 12.519 6.18598C13.6578 6.18598 14.581 5.26279 14.581 4.12398C14.581 2.98518 13.6578 2.06199 12.519 2.06199ZM8.39502 4.12398C8.39502 1.84637 10.2414 0 12.519 0C14.7966 0 16.643 1.84637 16.643 4.12398C16.643 6.4016 14.7966 8.24797 12.519 8.24797C10.2414 8.24797 8.39502 6.4016 8.39502 4.12398Z" fill="#D83036"/>
<path fill-rule="evenodd" clip-rule="evenodd" d="M4.27097 7.21702C3.70156 7.21702 3.23997 7.67861 3.23997 8.24802C3.23997 8.81742 3.70156 9.27901 4.27097 9.27901C4.84037 9.27901 5.30196 8.81742 5.30196 8.24802C5.30196 7.67861 4.84037 7.21702 4.27097 7.21702ZM1.17798 8.24802C1.17798 6.53981 2.56276 5.15503 4.27097 5.15503C5.97918 5.15503 7.36395 6.53981 7.36395 8.24802C7.36395 9.95623 5.97918 11.341 4.27097 11.341C2.56276 11.341 1.17798 9.95623 1.17798 8.24802Z" fill="#D83036"/>
<path fill-rule="evenodd" clip-rule="evenodd" d="M20.7668 7.21702C20.1974 7.21702 19.7358 7.67861 19.7358 8.24802C19.7358 8.81742 20.1974 9.27901 20.7668 9.27901C21.3362 9.27901 21.7978 8.81742 21.7978 8.24802C21.7978 7.67861 21.3362 7.21702 20.7668 7.21702ZM17.6738 8.24802C17.6738 6.53981 19.0586 5.15503 20.7668 5.15503C22.475 5.15503 23.8598 6.53981 23.8598 8.24802C23.8598 9.95623 22.475 11.341 20.7668 11.341C19.0586 11.341 17.6738 9.95623 17.6738 8.24802Z" fill="#D83036"/>
<path fill-rule="evenodd" clip-rule="evenodd" d="M3.95573 12.3719C3.95569 12.3719 3.95578 12.3719 3.95573 12.3719H4.27109C4.84049 12.3719 5.30209 12.8335 5.30209 13.4029C5.30209 13.9723 4.84049 14.4339 4.27109 14.4339H3.95561C3.71155 14.4339 3.47527 14.5205 3.28903 14.6782C3.10286 14.8359 2.97864 15.0544 2.93845 15.2951L2.59512 17.3571C2.57049 17.5048 2.57829 17.6564 2.61806 17.8007C2.65782 17.9451 2.72857 18.0791 2.82537 18.1933C2.92217 18.3076 3.0427 18.3994 3.17857 18.4624C3.31444 18.5253 3.4624 18.5579 3.61216 18.5579H7.36408C7.93348 18.5579 8.39507 19.0195 8.39507 19.5889C8.39507 20.1583 7.93348 20.6199 7.36408 20.6199H3.61241C3.61237 20.6199 3.61245 20.6199 3.61241 20.6199C3.16319 20.62 2.71923 20.5221 2.31164 20.3333C1.90402 20.1444 1.54243 19.869 1.25204 19.5262C0.961646 19.1834 0.749413 18.7815 0.630104 18.3483C0.51082 17.9153 0.487285 17.4615 0.561134 17.0184L0.904455 14.9564C1.0249 14.2342 1.39768 13.5779 1.95639 13.1047C2.51507 12.6315 3.22361 12.3719 3.95573 12.3719Z" fill="#D83036"/>
<path fill-rule="evenodd" clip-rule="evenodd" d="M19.7361 13.4029C19.7361 12.8335 20.1976 12.3719 20.7671 12.3719H21.0824C21.0824 12.3719 21.0825 12.3719 21.0824 12.3719C21.8145 12.3719 22.5231 12.6315 23.0818 13.1047C23.6405 13.5779 24.0132 14.2339 24.1336 14.9561L24.477 17.0181C24.4769 17.018 24.477 17.0182 24.477 17.0181C24.5508 17.4612 24.5273 17.9153 24.408 18.3483C24.2887 18.7815 24.0765 19.1834 23.7861 19.5262C23.4957 19.869 23.1341 20.1444 22.7265 20.3333C22.3189 20.5221 21.8751 20.62 21.4259 20.6199C21.4258 20.6199 21.4259 20.6199 21.4259 20.6199H17.6741C17.1047 20.6199 16.6431 20.1583 16.6431 19.5889C16.6431 19.0195 17.1047 18.5579 17.6741 18.5579H21.4259C21.5756 18.5579 21.7237 18.5253 21.8596 18.4624C21.9954 18.3994 22.116 18.3076 22.2128 18.1933C22.3096 18.0791 22.3803 17.9451 22.4201 17.8007C22.4599 17.6564 22.4677 17.505 22.4431 17.3573L22.0997 15.2953C22.0997 15.2952 22.0998 15.2954 22.0997 15.2953C22.0595 15.0547 21.9353 14.8359 21.7491 14.6782C21.5629 14.5205 21.3267 14.4339 21.0827 14.4339H20.7671C20.1976 14.4339 19.7361 13.9723 19.7361 13.4029Z" fill="#D83036"/>
</svg>
