<svg width="23" height="25" viewBox="0 0 23 25" fill="none" xmlns="http://www.w3.org/2000/svg">
<path d="M11.0714 25C12.8172 25 14.2332 23.6011 14.2332 21.875H7.90966C7.90966 23.6011 9.32571 25 11.0714 25ZM21.7173 17.6899C20.7624 16.6763 18.9756 15.1514 18.9756 10.1562C18.9756 6.3623 16.2829 3.3252 12.6521 2.58008V1.5625C12.6521 0.699707 11.9443 0 11.0714 0C10.1986 0 9.49079 0.699707 9.49079 1.5625V2.58008C5.85997 3.3252 3.16724 6.3623 3.16724 10.1562C3.16724 15.1514 1.3805 16.6763 0.425591 17.6899C0.129036 18.0049 -0.00243712 18.3813 3.41725e-05 18.75C0.00547102 19.5508 0.641582 20.3125 1.5866 20.3125H20.5563C21.5013 20.3125 22.1379 19.5508 22.1428 18.75C22.1453 18.3813 22.0138 18.0044 21.7173 17.6899Z" fill="#323232"/>
</svg>
