<svg width="25" height="24" viewBox="0 0 25 24" fill="none" xmlns="http://www.w3.org/2000/svg">
<path fill-rule="evenodd" clip-rule="evenodd" d="M0.557129 0H2.05713V22.5H24.5571V24H0.557129V0ZM22.7826 4.6695C22.8589 4.73191 22.9221 4.80875 22.9687 4.89561C23.0153 4.98248 23.0442 5.07766 23.054 5.17574C23.0637 5.27381 23.0541 5.37284 23.0255 5.46718C22.997 5.56151 22.9501 5.64929 22.8876 5.7255L16.1376 13.9755C16.0713 14.0565 15.9887 14.1227 15.8953 14.1698C15.8018 14.217 15.6995 14.244 15.5949 14.2493C15.4904 14.2545 15.3859 14.2378 15.2882 14.2002C15.1905 14.1626 15.1017 14.105 15.0276 14.031L11.1471 10.1505L5.66313 17.691C5.54316 17.8435 5.36874 17.9437 5.1765 17.9703C4.98427 17.9969 4.7892 17.948 4.63229 17.8338C4.47537 17.7196 4.36883 17.549 4.33504 17.3579C4.30126 17.1668 4.34287 16.9701 4.45113 16.809L10.4511 8.559C10.5148 8.47127 10.5968 8.39839 10.6913 8.34538C10.7859 8.29237 10.8908 8.26049 10.9989 8.25194C11.107 8.24338 11.2156 8.25836 11.3173 8.29583C11.419 8.3333 11.5114 8.39238 11.5881 8.469L15.5016 12.384L21.7266 4.7745C21.789 4.69822 21.8659 4.635 21.9527 4.58844C22.0396 4.54187 22.1348 4.51289 22.2329 4.50314C22.3309 4.49338 22.43 4.50306 22.5243 4.5316C22.6186 4.56015 22.7064 4.60701 22.7826 4.6695Z" fill="#A79601"/>
</svg>
