<svg width="396" height="445" viewBox="0 0 396 445" fill="none" xmlns="http://www.w3.org/2000/svg">
<g clip-path="url(#clip0_1_47)">
<path d="M221.295 105.749H218.857V38.7671C218.857 28.4854 214.783 18.6249 207.532 11.3546C200.282 4.08439 190.447 -2.28534e-06 180.193 -1.52587e-05H38.6634C33.5861 -2.81062e-05 28.5584 1.0027 23.8675 2.95092C19.1767 4.89913 14.9145 7.75468 11.3242 11.3545C7.734 14.9544 4.88607 19.228 2.94305 23.9315C1.00002 28.6349 -4.98237e-05 33.676 -6.10351e-05 38.767V406.233C-6.58401e-05 411.324 0.999976 416.365 2.94299 421.068C4.886 425.772 7.73393 430.046 11.3242 433.645C14.9144 437.245 19.1766 440.101 23.8675 442.049C28.5583 443.997 33.5859 445 38.6633 445H180.193C190.447 445 200.281 440.916 207.532 433.645C214.783 426.375 218.856 416.515 218.857 406.233V153.427H221.295V105.749Z" fill="#E6E6E6"/>
<path d="M181.753 10.0859H163.279C164.128 12.1744 164.453 14.4403 164.223 16.6841C163.994 18.9278 163.217 21.0806 161.963 22.9527C160.708 24.8247 159.013 26.3586 157.028 27.4193C155.043 28.48 152.828 29.0349 150.578 29.035H69.4976C67.2481 29.0349 65.0331 28.48 63.0478 27.4193C61.0626 26.3587 59.3679 24.8247 58.1132 22.9526C56.8584 21.0806 56.0821 18.9278 55.8525 16.684C55.623 14.4403 55.9473 12.1743 56.7969 10.0858H39.5418C31.8842 10.0858 24.5401 13.136 19.1253 18.5653C13.7105 23.9946 10.6685 31.3584 10.6685 39.0366V405.963C10.6685 413.642 13.7105 421.005 19.1253 426.435C24.5401 431.864 31.8841 434.914 39.5418 434.914H181.753C185.545 434.914 189.299 434.165 192.803 432.711C196.306 431.256 199.489 429.123 202.17 426.435C204.851 423.746 206.978 420.555 208.429 417.042C209.88 413.53 210.627 409.765 210.627 405.963V39.0366C210.627 35.2348 209.88 31.4701 208.429 27.9576C206.978 24.4452 204.851 21.2537 202.17 18.5653C199.489 15.877 196.306 13.7445 192.803 12.2896C189.299 10.8347 185.545 10.0859 181.753 10.0859Z" fill="white"/>
<path d="M198.892 298.277H28.3761C27.539 298.276 26.7364 297.942 26.1444 297.348C25.5525 296.755 25.2195 295.95 25.2185 295.111V252.7C25.2195 251.861 25.5525 251.056 26.1444 250.462C26.7364 249.869 27.539 249.535 28.3761 249.534H198.892C199.729 249.535 200.532 249.869 201.124 250.462C201.715 251.056 202.048 251.861 202.049 252.7V295.111C202.048 295.951 201.715 296.755 201.123 297.349C200.531 297.942 199.729 298.276 198.892 298.277ZM28.3761 250.8C27.8738 250.801 27.3921 251.001 27.0369 251.357C26.6817 251.713 26.4819 252.196 26.4814 252.7V295.111C26.4819 295.615 26.6817 296.098 27.0369 296.454C27.3921 296.81 27.8738 297.011 28.3761 297.011H198.892C199.394 297.011 199.876 296.81 200.231 296.454C200.586 296.098 200.786 295.615 200.787 295.111V252.7C200.786 252.196 200.586 251.713 200.231 251.357C199.876 251.001 199.394 250.801 198.892 250.8H28.3761Z" fill="#E6E6E6"/>
<path d="M50.4795 287.203C57.804 287.203 63.7417 281.249 63.7417 273.905C63.7417 266.561 57.804 260.607 50.4795 260.607C43.1549 260.607 37.2172 266.561 37.2172 273.905C37.2172 281.249 43.1549 287.203 50.4795 287.203Z" fill="#E6E6E6"/>
<path d="M81.1092 265.04C80.5294 265.05 79.9766 265.288 79.5699 265.702C79.1633 266.117 78.9354 266.675 78.9354 267.257C78.9354 267.838 79.1633 268.396 79.5699 268.811C79.9766 269.225 80.5294 269.463 81.1092 269.473H185.313C185.899 269.484 186.466 269.261 186.888 268.854C187.311 268.446 187.555 267.887 187.566 267.299C187.577 266.712 187.355 266.143 186.949 265.72C186.542 265.296 185.985 265.052 185.398 265.041L185.386 265.04C185.361 265.04 185.337 265.04 185.313 265.04H81.1092Z" fill="#E6E6E6"/>
<path d="M81.1092 278.338C80.5294 278.348 79.9766 278.586 79.5699 279C79.1633 279.415 78.9354 279.973 78.9354 280.554C78.9354 281.136 79.1633 281.694 79.5699 282.109C79.9766 282.523 80.5294 282.761 81.1092 282.771H185.313C185.898 282.779 186.463 282.554 186.883 282.145C187.303 281.736 187.544 281.177 187.554 280.591C187.564 280.004 187.341 279.437 186.934 279.015C186.528 278.593 185.971 278.349 185.386 278.338C185.362 278.338 185.337 278.338 185.313 278.338H81.1092Z" fill="#E6E6E6"/>
<path d="M198.892 369.199H28.3761C27.539 369.198 26.7364 368.864 26.1444 368.271C25.5525 367.677 25.2195 366.872 25.2185 366.033V323.622C25.2195 322.783 25.5525 321.978 26.1444 321.384C26.7364 320.791 27.539 320.457 28.3761 320.456H198.892C199.729 320.457 200.532 320.791 201.124 321.384C201.715 321.978 202.048 322.783 202.049 323.622V366.034C202.048 366.873 201.715 367.677 201.123 368.271C200.531 368.864 199.729 369.198 198.892 369.199ZM28.3761 321.722C27.8738 321.723 27.3921 321.923 27.0369 322.279C26.6817 322.635 26.4819 323.118 26.4814 323.622V366.034C26.4819 366.537 26.6817 367.02 27.0369 367.376C27.3921 367.733 27.8738 367.933 28.3761 367.933H198.892C199.394 367.933 199.876 367.733 200.231 367.376C200.586 367.02 200.786 366.537 200.787 366.034V323.622C200.786 323.118 200.586 322.635 200.231 322.279C199.876 321.923 199.394 321.723 198.892 321.722H28.3761Z" fill="#E6E6E6"/>
<path d="M50.4795 358.125C57.804 358.125 63.7417 352.171 63.7417 344.827C63.7417 337.483 57.804 331.529 50.4795 331.529C43.1549 331.529 37.2172 337.483 37.2172 344.827C37.2172 352.171 43.1549 358.125 50.4795 358.125Z" fill="#E6E6E6"/>
<path d="M81.1092 335.962C80.5294 335.972 79.9766 336.21 79.5699 336.624C79.1633 337.039 78.9354 337.597 78.9354 338.179C78.9354 338.76 79.1633 339.318 79.5699 339.733C79.9766 340.147 80.5294 340.385 81.1092 340.395H185.313C185.898 340.403 186.463 340.178 186.883 339.769C187.303 339.361 187.544 338.802 187.554 338.215C187.564 337.628 187.341 337.061 186.934 336.639C186.528 336.217 185.971 335.974 185.386 335.962C185.362 335.962 185.337 335.962 185.313 335.962H81.1092Z" fill="#E6E6E6"/>
<path d="M81.1092 349.26C80.5294 349.27 79.9766 349.508 79.5699 349.922C79.1633 350.337 78.9354 350.895 78.9354 351.476C78.9354 352.058 79.1633 352.616 79.5699 353.031C79.9766 353.445 80.5294 353.683 81.1092 353.693H185.313C185.898 353.701 186.463 353.476 186.883 353.067C187.303 352.659 187.544 352.1 187.554 351.513C187.564 350.926 187.341 350.359 186.934 349.937C186.528 349.515 185.971 349.271 185.386 349.26C185.362 349.26 185.337 349.26 185.313 349.26H81.1092Z" fill="#E6E6E6"/>
<path d="M110.046 210.268C94.1403 210.275 78.8838 203.946 67.6323 192.673C56.3809 181.401 50.0562 166.109 50.0496 150.161V150.111C50.0496 149.985 50.0496 149.852 50.0569 149.726C50.2398 116.782 77.1522 89.9534 110.046 89.9534C125.957 89.9516 141.218 96.2878 152.471 107.568C163.724 118.848 170.047 134.149 170.048 150.103C170.05 166.058 163.731 181.36 152.481 192.643C141.231 203.926 125.971 210.265 110.059 210.267H110.046V210.268ZM110.046 91.2185C94.5394 91.2533 79.6734 97.422 68.6774 108.384C57.6815 119.347 51.4441 134.217 51.3204 149.764C51.3137 149.899 51.3137 150.009 51.3137 150.109C51.3123 161.758 54.7559 173.146 61.2092 182.832C67.6624 192.519 76.8355 200.069 87.5684 204.528C98.3012 208.987 110.112 210.155 121.507 207.884C132.901 205.613 143.369 200.005 151.585 191.769C159.801 183.533 165.396 173.039 167.664 161.614C169.932 150.189 168.77 138.347 164.326 127.584C159.881 116.821 152.354 107.622 142.695 101.149C133.036 94.6757 121.679 91.2199 110.061 91.2185H110.046Z" fill="#E6E6E6"/>
<path d="M192.161 283.005C205.633 283.005 216.554 272.054 216.554 258.547C216.554 245.039 205.633 234.089 192.161 234.089C178.689 234.089 167.768 245.039 167.768 258.547C167.768 272.054 178.689 283.005 192.161 283.005Z" fill="white"/>
<path d="M183.689 269.55C183.647 269.55 183.606 269.55 183.564 269.549H170.453C168.789 269.523 167.202 268.842 166.035 267.653C164.868 266.464 164.213 264.863 164.212 263.195C164.212 261.527 164.865 259.925 166.031 258.735C167.198 257.546 168.784 256.863 170.448 256.836H183.57C183.634 256.834 183.704 256.834 183.773 256.836C185.447 256.859 187.043 257.545 188.215 258.743C189.386 259.942 190.037 261.557 190.026 263.235C190.015 264.913 189.343 266.519 188.156 267.702C186.969 268.885 185.363 269.549 183.689 269.55Z" fill="#FF272F"/>
<path d="M396 443.512H198.4V444.882H396V443.512Z" fill="#3F3D56"/>
<path d="M210.575 327.573C210.42 327.331 210.291 327.073 210.191 326.803L207.042 318.349C206.676 317.361 206.715 316.268 207.151 315.31C207.587 314.351 208.385 313.605 209.369 313.235L279.645 286.923C280.63 286.556 281.72 286.595 282.676 287.032C283.632 287.469 284.376 288.269 284.745 289.256L287.893 297.711C288.075 298.2 288.16 298.72 288.141 299.241C288.123 299.763 288.002 300.276 287.786 300.751C287.57 301.225 287.263 301.653 286.882 302.009C286.501 302.364 286.054 302.642 285.567 302.824L215.291 329.136C214.445 329.452 213.516 329.47 212.659 329.186C211.801 328.902 211.066 328.333 210.575 327.573Z" fill="#FF272F"/>
<path d="M279.421 284.738L250.844 296.165C249.943 296.436 249.181 297.045 248.717 297.865C248.252 298.685 248.12 299.652 248.348 300.567L251.664 313.881C251.795 314.407 252.041 314.898 252.383 315.317C252.726 315.736 253.157 316.074 253.645 316.307C254.134 316.539 254.668 316.66 255.208 316.661C255.749 316.662 256.283 316.543 256.772 316.312L285.429 302.787C286.337 302.446 287.072 301.757 287.475 300.873C287.878 299.989 287.915 298.98 287.578 298.069L284.133 286.894C283.793 285.982 283.105 285.243 282.222 284.839C281.339 284.435 280.331 284.399 279.421 284.738Z" fill="#2F2E41"/>
<path d="M331.72 367.689C330.823 367.792 329.918 367.585 329.154 367.103C328.389 366.62 327.812 365.891 327.517 365.035L303.055 293.93C302.886 293.437 302.814 292.915 302.846 292.394C302.877 291.873 303.011 291.363 303.239 290.894C303.467 290.424 303.784 290.005 304.174 289.659C304.564 289.313 305.018 289.047 305.51 288.877L314.018 285.934C315.012 285.591 316.101 285.657 317.046 286.119C317.991 286.58 318.714 287.399 319.058 288.395L343.52 359.5C343.862 360.497 343.795 361.589 343.335 362.536C342.875 363.483 342.059 364.209 341.066 364.554L332.557 367.496C332.286 367.59 332.005 367.655 331.72 367.689Z" fill="#FF272F"/>
<path d="M320.881 287.178L330.27 316.555C330.634 317.425 330.65 318.401 330.315 319.282C329.98 320.163 329.319 320.881 328.47 321.287L316.115 327.192C315.627 327.425 315.094 327.547 314.553 327.549C314.012 327.55 313.478 327.432 312.988 327.202C312.499 326.972 312.066 326.636 311.722 326.218C311.377 325.801 311.129 325.311 310.995 324.786L303.171 294.013C302.857 293.093 302.918 292.086 303.342 291.212C303.766 290.338 304.519 289.668 305.435 289.348L316.225 284.904C317.143 284.588 318.149 284.649 319.022 285.075C319.895 285.502 320.564 286.258 320.881 287.178Z" fill="#2F2E41"/>
<path d="M292.455 443.915H283.454C282.403 443.914 281.396 443.494 280.653 442.749C279.91 442.004 279.492 440.994 279.49 439.94V364.723C279.492 363.669 279.91 362.659 280.653 361.914C281.396 361.169 282.403 360.75 283.454 360.749H292.455C293.505 360.75 294.513 361.169 295.256 361.914C295.999 362.659 296.417 363.669 296.418 364.723V439.94C296.417 440.994 295.999 442.004 295.256 442.749C294.513 443.494 293.505 443.914 292.455 443.915Z" fill="#2F2E41"/>
<path d="M310.257 443.915H301.256C300.205 443.914 299.197 443.494 298.454 442.749C297.711 442.004 297.293 440.994 297.292 439.94V364.723C297.293 363.669 297.711 362.659 298.454 361.914C299.197 361.169 300.205 360.75 301.256 360.749H310.257C311.307 360.75 312.315 361.169 313.058 361.914C313.801 362.659 314.219 363.669 314.22 364.723V439.94C314.219 440.994 313.801 442.004 313.058 442.749C312.315 443.494 311.307 443.914 310.257 443.915Z" fill="#2F2E41"/>
<path d="M317.674 373.566H276.778C275.647 373.565 274.562 373.113 273.761 372.311C272.961 371.508 272.511 370.42 272.51 369.286V302.672C272.51 296.099 275.114 289.795 279.749 285.148C284.384 280.5 290.671 277.889 297.226 277.889C303.781 277.889 310.068 280.5 314.703 285.148C319.339 289.795 321.943 296.099 321.943 302.672V369.286C321.941 370.42 321.491 371.508 320.691 372.311C319.891 373.113 318.806 373.565 317.674 373.566Z" fill="#CCCCCC"/>
<path d="M323.83 389.861H303.096V272.368L303.481 272.473C309.321 274.08 314.473 277.563 318.148 282.388C321.824 287.214 323.82 293.114 323.83 299.186V389.861Z" fill="#2F2E41"/>
<path d="M289.671 389.861H268.937V299.186C268.948 293.114 270.943 287.214 274.619 282.389C278.294 277.563 283.447 274.08 289.286 272.473L289.671 272.368V389.861Z" fill="#2F2E41"/>
<path d="M296.917 264.11C314.942 264.11 329.554 249.459 329.554 231.385C329.554 213.312 314.942 198.661 296.917 198.661C278.892 198.661 264.28 213.312 264.28 231.385C264.28 249.459 278.892 264.11 296.917 264.11Z" fill="#FF272F"/>
<path d="M333.815 223.851C333.815 223.851 335.645 173.101 311.862 189.61C311.862 189.61 298.141 143.446 264.601 212.539L254.844 222.323C254.844 222.323 298.751 216.208 339.608 235.163L333.815 223.851Z" fill="#2F2E41"/>
<path d="M297.415 247.592C295.399 247.536 292.89 247.465 290.957 246.05C290.381 245.611 289.908 245.051 289.571 244.41C289.234 243.768 289.041 243.061 289.005 242.336C288.97 241.822 289.054 241.306 289.251 240.829C289.448 240.353 289.752 239.928 290.14 239.589C291.149 238.734 292.623 238.533 294.212 239.001L292.566 226.94L293.774 226.774L295.71 240.953L294.701 240.489C293.531 239.951 291.925 239.677 290.927 240.523C290.682 240.744 290.491 241.019 290.369 241.326C290.247 241.633 290.198 241.964 290.224 242.293C290.254 242.832 290.399 243.359 290.649 243.836C290.9 244.314 291.25 244.732 291.676 245.062C293.18 246.164 295.18 246.306 297.449 246.369L297.415 247.592Z" fill="#2F2E41"/>
<path d="M286.59 227.98H280.022V229.203H286.59V227.98Z" fill="#2F2E41"/>
<path d="M307.324 227.98H300.755V229.203H307.324V227.98Z" fill="#2F2E41"/>
<path d="M224.15 330.692C223.27 331.102 222.263 331.144 221.352 330.809C220.441 330.475 219.7 329.791 219.291 328.909L198.246 283.426C197.838 282.544 197.796 281.535 198.129 280.621C198.463 279.708 199.145 278.964 200.025 278.555C200.905 278.145 201.912 278.103 202.823 278.438C203.734 278.772 204.475 279.456 204.884 280.338L225.929 325.82C226.338 326.703 226.38 327.712 226.046 328.626C225.712 329.54 225.03 330.283 224.15 330.692Z" fill="#3F3D56"/>
<path d="M202.528 281.753C201.881 281.753 201.26 281.495 200.803 281.036C200.346 280.578 200.089 279.956 200.089 279.307V248.152H169.598C168.951 248.152 168.331 247.894 167.873 247.436C167.416 246.977 167.159 246.355 167.159 245.706C167.159 245.058 167.416 244.435 167.873 243.977C168.331 243.518 168.951 243.26 169.598 243.26H202.528C203.175 243.26 203.795 243.518 204.253 243.977C204.71 244.435 204.967 245.058 204.967 245.706V279.307C204.967 279.956 204.71 280.578 204.253 281.036C203.795 281.495 203.175 281.753 202.528 281.753Z" fill="#FF272F"/>
<path d="M203.105 285.21C197.853 287.653 191.997 288.48 186.277 287.586C180.557 286.692 175.229 284.117 170.969 280.187C166.708 276.257 163.705 271.149 162.34 265.507C160.975 259.866 161.309 253.946 163.299 248.495C165.29 243.044 168.848 238.308 173.523 234.884C178.198 231.461 183.781 229.504 189.565 229.262C195.349 229.02 201.075 230.504 206.019 233.525C210.962 236.546 214.902 240.969 217.338 246.234C220.596 253.297 220.927 261.366 218.259 268.673C215.591 275.98 210.141 281.927 203.105 285.21ZM181.546 238.619C177.607 240.451 174.299 243.413 172.039 247.131C169.78 250.848 168.67 255.154 168.851 259.504C169.032 263.854 170.496 268.052 173.056 271.568C175.617 275.084 179.16 277.76 183.237 279.257C187.314 280.754 191.743 281.005 195.962 279.978C200.182 278.951 204.003 276.693 206.943 273.489C209.882 270.285 211.808 266.279 212.477 261.977C213.146 257.676 212.527 253.272 210.7 249.322C208.244 244.031 203.796 239.933 198.33 237.926C192.865 235.919 186.829 236.169 181.546 238.619Z" fill="#3F3D56"/>
</g>
<defs>
<clipPath id="clip0_1_47">
<rect width="396" height="445" fill="white"/>
</clipPath>
</defs>
</svg>
